<?xml version="1.0" encoding="UTF-8" standalone="no"?>
<!DOCTYPE svg PUBLIC "-//W3C//DTD SVG 1.1//EN" "http://www.w3.org/Graphics/SVG/1.1/DTD/svg11.dtd">
<svg width="100%" height="100%" viewBox="0 0 1048 688" version="1.1" xmlns="http://www.w3.org/2000/svg" xmlns:xlink="http://www.w3.org/1999/xlink" xml:space="preserve" xmlns:serif="http://www.serif.com/" style="fill-rule:evenodd;clip-rule:evenodd;stroke-linejoin:round;stroke-miterlimit:2;">
    <g id="Layer1">
        <rect x="-17" y="-8" width="1098" height="721"/>
    </g>
    <path d="M961.462,106L961.462,173.092C961.462,173.092 952.211,173.605 948,175.324C943.046,177.346 935.624,180.744 931.738,185.226C927.852,189.708 924.82,196.084 924.684,202.214C923.508,255.311 924.684,503.813 924.684,503.813L777.474,504.054C777.474,504.054 759.899,518.238 749.988,523.506C732.916,532.58 691.172,551.579 668.381,562.221C644.243,573.491 625.83,582.084 602.112,593.163C594.328,596.798 574.26,606.216 555.892,616.67C537.728,627.008 521.218,636.404 521.218,636.404C521.218,636.404 504.521,627.008 486.783,616.67C468.848,606.217 449.826,596.801 441.834,593.163C427.88,586.81 382.299,566.616 367.823,561.5C340.747,551.931 304.033,529.834 294.356,523.506C281.859,515.334 264.608,504.054 264.608,504.054L118.947,503.813C118.947,503.813 120.656,255.311 118.947,202.214C118.735,195.604 112.698,188.342 108.698,185.226C104.562,182.005 99.753,179.211 94.989,177.519C88.723,175.293 82.753,175.519 81.639,175.519L81.639,106L961.462,106M133,491L269.608,491C269.608,491 292.878,508.055 303.51,513.856C325.806,526.024 335.98,533.903 367.823,546.072C387.117,553.446 440.834,576.174 465.24,587.337C483.18,595.542 521.218,616.67 521.218,616.67C521.218,616.67 558.237,596.083 577.5,587.337C602.112,576.162 640.308,558.819 668.381,546.072C693.347,534.737 721.761,523.035 739.333,513.856C751.556,507.472 773.814,491 773.814,491L910,491C910,488.694 908.585,254.009 910,202.214C910.215,194.36 914.534,185.948 918.49,180.226C922.209,174.848 928.653,170.858 933.738,167.884C938.406,165.155 949,162.385 949,162.385L949,118.338L94.989,118.338C94.989,123.003 94.97,165.812 94.97,165.812C94.97,165.812 104.623,167.507 112.698,173.092C120.076,178.196 122.9,180.852 126.241,185.226C128.425,188.085 132.842,195.99 133,202.214C134.293,253.176 133,491 133,491Z" style="fill:white;fill-rule:nonzero;"/>
    <path d="M307.994,128L108.698,128.162L108.698,157.431C108.698,157.431 120.158,159.719 130.218,170.598C138.056,179.073 145.043,193.247 145.1,202.625C145.658,294.749 145,386.875 145,479C264.911,479 278.05,479 278.05,479C278.05,479 294.254,493.628 302.593,499.082C336.892,521.516 395.613,541.585 430.353,557.459C472.533,576.731 521.55,600.226 521.55,600.226C521.55,600.226 565.157,579.556 613.594,557.459C660.772,535.936 729.134,505.534 741.552,499.082C756.631,491.248 767.917,479 767.917,479C767.917,479 777.11,479 897,479C897,371.763 896.484,211.929 897,202.625C897.604,191.74 903.335,178.193 910.099,170.598C920.661,158.739 935.738,155.64 935.738,155.64L935.738,128C935.738,128 773.922,128.162 735,128.162L735,140.369L749,155.64L749,404.364L696.815,434.554L696.815,128.276L548.849,128.276L548.849,475C520.733,475 520.89,475.005 492.736,474.593L492.736,128.338L344.76,128.338L344.76,432.199C340.68,429.997 293.11,404.364 293.11,404.364L293.11,157.431L307.994,140.369L307.994,128Z" style="fill:white;fill-rule:nonzero;"/>
</svg>
