<svg width="23" height="18" viewBox="0 0 23 18" fill="none" xmlns="http://www.w3.org/2000/svg">
<path d="M13.8126 1.125H18.3126C18.9348 1.125 19.4376 1.62773 19.4376 2.25C19.4376 2.87227 18.9348 3.375 18.3126 3.375H14.3188C14.136 4.28203 13.5137 5.03086 12.6876 5.38945V15.75H18.3126C18.9348 15.75 19.4376 16.2527 19.4376 16.875C19.4376 17.4973 18.9348 18 18.3126 18H11.5626H4.81256C4.1903 18 3.68756 17.4973 3.68756 16.875C3.68756 16.2527 4.1903 15.75 4.81256 15.75H10.4376V5.38945C9.61139 5.02734 8.98913 4.27852 8.80631 3.375H4.81256C4.1903 3.375 3.68756 2.87227 3.68756 2.25C3.68756 1.62773 4.1903 1.125 4.81256 1.125H9.31256C9.82584 0.442969 10.6415 0 11.5626 0C12.4837 0 13.2993 0.442969 13.8126 1.125ZM15.7673 11.25H20.8579L18.3126 6.88359L15.7673 11.25ZM18.3126 14.625C16.1012 14.625 14.2626 13.4297 13.8829 11.8512C13.7915 11.4645 13.918 11.0672 14.1184 10.7227L17.4653 4.98516C17.6411 4.68281 17.9645 4.5 18.3126 4.5C18.6606 4.5 18.984 4.68633 19.1598 4.98516L22.5067 10.7227C22.7071 11.0672 22.8337 11.4645 22.7423 11.8512C22.3626 13.4297 20.5239 14.625 18.3126 14.625ZM4.77038 6.88359L2.22506 11.25H7.3192L4.77038 6.88359ZM0.344203 11.8512C0.252797 11.4645 0.37936 11.0672 0.57975 10.7227L3.92663 4.98516C4.10241 4.68281 4.42584 4.5 4.77389 4.5C5.12194 4.5 5.44537 4.68633 5.62116 4.98516L8.96803 10.7227C9.16842 11.0672 9.29498 11.4645 9.20358 11.8512C8.82037 13.4297 6.9817 14.625 4.77038 14.625C2.55905 14.625 0.723891 13.4297 0.344203 11.8512Z" fill="#D4AF37"/>
</svg>
