<svg width="24" height="30" viewBox="0 0 24 30" fill="none" xmlns="http://www.w3.org/2000/svg">
<g clip-path="url(#clip0_2_434)">
<path d="M10.9336 0.322266C11.5781 -0.105469 12.4219 -0.105469 13.0664 0.322266L14.1094 1.00781C14.4609 1.23633 14.8711 1.34766 15.2871 1.32422L16.5351 1.24805C17.3086 1.20117 18.0351 1.62305 18.3809 2.31445L18.9434 3.43359C19.1309 3.80859 19.4355 4.10742 19.8047 4.29492L20.9355 4.86328C21.6269 5.20898 22.0488 5.93555 22.0019 6.70898L21.9258 7.95703C21.9023 8.37305 22.0137 8.78906 22.2422 9.13477L22.9336 10.1777C23.3613 10.8223 23.3613 11.666 22.9336 12.3105L22.2422 13.3594C22.0137 13.7109 21.9023 14.1211 21.9258 14.5371L22.0019 15.7852C22.0488 16.5586 21.6269 17.2852 20.9355 17.6309L19.8164 18.1934C19.4414 18.3809 19.1426 18.6855 18.9551 19.0547L18.3867 20.1855C18.041 20.877 17.3144 21.2988 16.541 21.252L15.293 21.1758C14.8769 21.1523 14.4609 21.2637 14.1152 21.4922L13.0723 22.1836C12.4277 22.6113 11.584 22.6113 10.9394 22.1836L9.89062 21.4922C9.53906 21.2637 9.1289 21.1523 8.71288 21.1758L7.46484 21.252C6.6914 21.2988 5.96484 20.877 5.61913 20.1855L5.05663 19.0664C4.86913 18.6914 4.56445 18.3926 4.19531 18.2051L3.06445 17.6367C2.37304 17.291 1.95117 16.5645 1.99804 15.791L2.07421 14.543C2.09765 14.127 1.98632 13.7109 1.75781 13.3652L1.07226 12.3164C0.644525 11.6719 0.644525 10.8281 1.07226 10.1836L1.75781 9.14062C1.98632 8.78906 2.09765 8.37891 2.07421 7.96289L1.99804 6.71484C1.95117 5.94141 2.37304 5.21484 3.06445 4.86914L4.18359 4.30664C4.55859 4.11328 4.86328 3.80859 5.05078 3.43359L5.61328 2.31445C5.95898 1.62305 6.68554 1.20117 7.45898 1.24805L8.70703 1.32422C9.12304 1.34766 9.53906 1.23633 9.88476 1.00781L10.9336 0.322266ZM16.6875 11.25C16.6875 10.0068 16.1936 8.81451 15.3146 7.93544C14.4355 7.05636 13.2432 6.5625 12 6.5625C10.7568 6.5625 9.56451 7.05636 8.68543 7.93544C7.80635 8.81451 7.31249 10.0068 7.31249 11.25C7.31249 12.4932 7.80635 13.6855 8.68543 14.5646C9.56451 15.4436 10.7568 15.9375 12 15.9375C13.2432 15.9375 14.4355 15.4436 15.3146 14.5646C16.1936 13.6855 16.6875 12.4932 16.6875 11.25ZM0.826166 25.8867L3.35156 19.8809C3.36328 19.8867 3.36913 19.8926 3.37499 19.9043L3.93749 21.0234C4.62304 22.3828 6.04687 23.209 7.57031 23.1211L8.81835 23.0449C8.83007 23.0449 8.84765 23.0449 8.85937 23.0566L9.90234 23.748C10.2012 23.9414 10.5176 24.0938 10.8457 24.1992L8.64257 29.4316C8.50781 29.7539 8.20898 29.9707 7.86328 30C7.51757 30.0293 7.18359 29.8711 6.99609 29.5781L5.10937 26.6895L1.82226 27.1758C1.48828 27.2227 1.15429 27.0879 0.943354 26.8242C0.732416 26.5605 0.6914 26.1973 0.820307 25.8867H0.826166ZM15.3574 29.4258L13.1543 24.1992C13.4824 24.0938 13.7988 23.9473 14.0976 23.748L15.1406 23.0566C15.1523 23.0508 15.1641 23.0449 15.1816 23.0449L16.4297 23.1211C17.9531 23.209 19.3769 22.3828 20.0625 21.0234L20.625 19.9043C20.6309 19.8926 20.6367 19.8867 20.6484 19.8809L23.1797 25.8867C23.3086 26.1973 23.2617 26.5547 23.0566 26.8242C22.8516 27.0938 22.5117 27.2285 22.1777 27.1758L18.8906 26.6895L17.0039 29.5723C16.8164 29.8652 16.4824 30.0234 16.1367 29.9941C15.791 29.9648 15.4922 29.7422 15.3574 29.4258Z" fill="black"/>
</g>
<defs>
<clipPath id="clip0_2_434">
<path d="M0.75 0H23.25V30H0.75V0Z" fill="white"/>
</clipPath>
</defs>
</svg>
