<svg width="19" height="18" viewBox="0 0 19 18" fill="none" xmlns="http://www.w3.org/2000/svg">
<path d="M8.07419 0.256612C7.86325 0.0351278 7.54685 -0.0492472 7.25153 0.0280965C6.95622 0.10544 6.72771 0.340987 6.65036 0.6363L6.09489 2.83357L3.91521 2.21833C3.61989 2.13396 3.30349 2.21833 3.08903 2.43278C2.87458 2.64724 2.79021 2.96364 2.87458 3.25896L3.48982 5.43864L1.29255 5.99763C0.997237 6.07146 0.765206 6.30349 0.684347 6.5988C0.603487 6.89411 0.691378 7.207 0.912862 7.41794L2.53708 8.99997L0.912862 10.582C0.691378 10.7929 0.607003 11.1093 0.684347 11.4047C0.76169 11.7 0.997237 11.9285 1.29255 12.0058L3.48982 12.5613L2.87458 14.741C2.79021 15.0363 2.87458 15.3527 3.08903 15.5672C3.30349 15.7816 3.61989 15.866 3.91521 15.7816L6.09489 15.1664L6.65036 17.3636C6.72419 17.659 6.95622 17.891 7.25153 17.9718C7.54685 18.0527 7.85974 17.9648 8.07419 17.7468L9.65622 16.1226L11.2383 17.7468C11.4527 17.9648 11.7656 18.0527 12.0609 17.9718C12.3562 17.891 12.5847 17.659 12.6621 17.3636L13.2175 15.1664L15.3972 15.7816C15.6925 15.866 16.009 15.7816 16.2234 15.5672C16.4379 15.3527 16.5222 15.0363 16.4379 14.741L15.8226 12.5613L18.0199 12.0058C18.3152 11.932 18.5472 11.7 18.6281 11.4047C18.709 11.1093 18.6211 10.7965 18.4031 10.582L16.7789 8.99997L18.4031 7.41794C18.6211 7.20349 18.709 6.8906 18.6281 6.59528C18.5472 6.29997 18.3152 6.07146 18.0199 5.99411L15.8226 5.43864L16.4379 3.25896C16.5222 2.96364 16.4379 2.64724 16.2234 2.43278C16.009 2.21833 15.6925 2.13396 15.3972 2.21833L13.2175 2.83357L12.6586 0.6363C12.5847 0.340987 12.3527 0.108956 12.0574 0.0280965C11.7621 -0.0527628 11.4492 0.0351278 11.2383 0.256612L9.65622 1.88083L8.07419 0.256612Z" fill="#D4AF37"/>
</svg>
