<svg width="23" height="16" viewBox="0 0 23 16" fill="none" xmlns="http://www.w3.org/2000/svg">
<path d="M11.5626 0.125C11.2778 0.125 10.9965 0.174219 10.7293 0.269141L0.868022 3.83047C0.534037 3.95352 0.312553 4.26992 0.312553 4.625C0.312553 4.98008 0.534037 5.29648 0.868022 5.41953L2.90357 6.1543C2.32701 7.06133 2.00005 8.13359 2.00005 9.26211V10.25C2.00005 11.2484 1.62037 12.2785 1.21607 13.0906C0.987553 13.5477 0.727397 13.9977 0.425053 14.4125C0.312553 14.5637 0.280912 14.7605 0.344193 14.9398C0.407475 15.1191 0.555131 15.2527 0.737944 15.2984L2.98794 15.8609C3.1356 15.8996 3.2938 15.8715 3.42388 15.7906C3.55396 15.7098 3.64537 15.5762 3.67349 15.425C3.97583 13.9203 3.82466 12.5703 3.59966 11.6035C3.48716 11.1043 3.33599 10.5945 3.12505 10.127V9.26211C3.12505 8.20039 3.48365 7.19844 4.10591 6.39687C4.55943 5.85195 5.14654 5.4125 5.8356 5.1418L11.3551 2.97266C11.6434 2.86016 11.9704 3.00078 12.0829 3.28906C12.1954 3.57734 12.0547 3.9043 11.7665 4.0168L6.24693 6.18594C5.81099 6.3582 5.42779 6.62187 5.1149 6.94531L10.7258 8.97031C10.993 9.06523 11.2743 9.11445 11.559 9.11445C11.8438 9.11445 12.1251 9.06523 12.3922 8.97031L22.2571 5.41953C22.5911 5.3 22.8126 4.98008 22.8126 4.625C22.8126 4.26992 22.5911 3.95352 22.2571 3.83047L12.3958 0.269141C12.1286 0.174219 11.8473 0.125 11.5626 0.125ZM4.81255 13.3438C4.81255 14.5848 7.83599 15.875 11.5626 15.875C15.2891 15.875 18.3126 14.5848 18.3126 13.3438L17.7747 8.23203L12.7754 10.0391C12.3852 10.1797 11.9739 10.25 11.5626 10.25C11.1512 10.25 10.7364 10.1797 10.3497 10.0391L5.35044 8.23203L4.81255 13.3438Z" fill="#D4AF37"/>
</svg>
