<svg width="19" height="17" viewBox="0 0 19 17" fill="none" xmlns="http://www.w3.org/2000/svg">
<path d="M7.125 1.6875H12.1875C12.3422 1.6875 12.4688 1.81406 12.4688 1.96875V3.375H6.84375V1.96875C6.84375 1.81406 6.97031 1.6875 7.125 1.6875ZM5.15625 1.96875V3.375H2.90625C1.66523 3.375 0.65625 4.38398 0.65625 5.625V9H7.40625H11.9062H18.6562V5.625C18.6562 4.38398 17.6473 3.375 16.4062 3.375H14.1562V1.96875C14.1562 0.882422 13.2738 0 12.1875 0H7.125C6.03867 0 5.15625 0.882422 5.15625 1.96875ZM18.6562 10.125H11.9062V11.25C11.9062 11.8723 11.4035 12.375 10.7812 12.375H8.53125C7.90898 12.375 7.40625 11.8723 7.40625 11.25V10.125H0.65625V14.625C0.65625 15.866 1.66523 16.875 2.90625 16.875H16.4062C17.6473 16.875 18.6562 15.866 18.6562 14.625V10.125Z" fill="#D4AF37"/>
</svg>
