<svg width="18" height="18" viewBox="0 0 18 18" fill="none" xmlns="http://www.w3.org/2000/svg">
<path d="M14 7.75C16.0703 7.75 17.75 6.07031 17.75 4C17.75 1.92969 16.0703 0.25 14 0.25C11.9297 0.25 10.25 1.92969 10.25 4C10.25 4.15625 10.2578 4.3125 10.2773 4.46484L6.60156 6.30078C5.92969 5.64844 5.01172 5.25 4 5.25C1.92969 5.25 0.25 6.92969 0.25 9C0.25 11.0703 1.92969 12.75 4 12.75C5.01172 12.75 5.92969 12.3516 6.60156 11.6992L10.2773 13.5352C10.2578 13.6875 10.25 13.8398 10.25 14C10.25 16.0703 11.9297 17.75 14 17.75C16.0703 17.75 17.75 16.0703 17.75 14C17.75 11.9297 16.0703 10.25 14 10.25C12.9883 10.25 12.0703 10.6484 11.3984 11.3008L7.72266 9.46484C7.74219 9.3125 7.75 9.16016 7.75 9C7.75 8.83984 7.74219 8.6875 7.72266 8.53516L11.3984 6.69922C12.0703 7.35156 12.9883 7.75 14 7.75Z" fill="black"/>
</svg>
