<svg width="38" height="30" viewBox="0 0 38 30" fill="none" xmlns="http://www.w3.org/2000/svg">
<g clip-path="url(#clip0_155_102)">
<path d="M19.1992 4.99219L13.5273 9.58594C12.584 10.3477 12.4023 11.7188 13.1172 12.6973C13.873 13.7402 15.3438 13.9453 16.3574 13.1543L22.1758 8.63086C22.5859 8.31445 23.1719 8.38477 23.4941 8.79492C23.8164 9.20508 23.7402 9.79102 23.3301 10.1133L22.1055 11.0625L30.25 18.5625V7.5H30.209L29.9805 7.35352L25.7266 4.62891C24.8301 4.05469 23.7812 3.75 22.7148 3.75C21.4375 3.75 20.1953 4.18945 19.1992 4.99219ZM20.5352 12.2813L17.5059 14.6367C15.6602 16.0781 12.9824 15.7031 11.5996 13.8047C10.2988 12.0176 10.627 9.52148 12.3438 8.13281L17.2188 4.18945C16.5391 3.90234 15.8066 3.75586 15.0625 3.75586C13.9609 3.75 12.8887 4.07813 11.9688 4.6875L7.75 7.5V20.625H9.40234L14.7578 25.5117C15.9062 26.5605 17.6816 26.4785 18.7305 25.3301C19.0527 24.9727 19.2695 24.5566 19.3809 24.123L20.377 25.0371C21.5195 26.0859 23.3008 26.0098 24.3496 24.8672C24.6133 24.5801 24.8066 24.2461 24.9297 23.9004C26.0664 24.6621 27.6133 24.5039 28.5684 23.4609C29.6172 22.3184 29.541 20.5371 28.3984 19.4883L20.5352 12.2813ZM1.1875 7.5C0.671875 7.5 0.25 7.92188 0.25 8.4375V20.625C0.25 21.6621 1.08789 22.5 2.125 22.5H4C5.03711 22.5 5.875 21.6621 5.875 20.625V7.5H1.1875ZM3.0625 18.75C3.31114 18.75 3.5496 18.8488 3.72541 19.0246C3.90123 19.2004 4 19.4389 4 19.6875C4 19.9361 3.90123 20.1746 3.72541 20.3504C3.5496 20.5262 3.31114 20.625 3.0625 20.625C2.81386 20.625 2.5754 20.5262 2.39959 20.3504C2.22377 20.1746 2.125 19.9361 2.125 19.6875C2.125 19.4389 2.22377 19.2004 2.39959 19.0246C2.5754 18.8488 2.81386 18.75 3.0625 18.75ZM32.125 7.5V20.625C32.125 21.6621 32.9629 22.5 34 22.5H35.875C36.9121 22.5 37.75 21.6621 37.75 20.625V8.4375C37.75 7.92188 37.3281 7.5 36.8125 7.5H32.125ZM34 19.6875C34 19.4389 34.0988 19.2004 34.2746 19.0246C34.4504 18.8488 34.6889 18.75 34.9375 18.75C35.1861 18.75 35.4246 18.8488 35.6004 19.0246C35.7762 19.2004 35.875 19.4389 35.875 19.6875C35.875 19.9361 35.7762 20.1746 35.6004 20.3504C35.4246 20.5262 35.1861 20.625 34.9375 20.625C34.6889 20.625 34.4504 20.5262 34.2746 20.3504C34.0988 20.1746 34 19.9361 34 19.6875Z" fill="black"/>
</g>
<defs>
<clipPath id="clip0_155_102">
<path d="M0.25 0H37.75V30H0.25V0Z" fill="white"/>
</clipPath>
</defs>
</svg>
