<svg width="22" height="30" viewBox="0 0 22 30" fill="none" xmlns="http://www.w3.org/2000/svg">
<path d="M15.6875 22.5C16.25 20.6309 17.416 19.0371 18.5703 17.4492C18.875 17.0332 19.1797 16.6172 19.4727 16.1953C20.6328 14.5254 21.3125 12.5039 21.3125 10.3184C21.3125 4.61719 16.6953 0 11 0C5.30469 0 0.6875 4.61719 0.6875 10.3125C0.6875 12.498 1.36719 14.5254 2.52734 16.1895C2.82031 16.6113 3.125 17.0273 3.42969 17.4434C4.58984 19.0312 5.75586 20.6309 6.3125 22.4941H15.6875V22.5ZM11 30C13.5898 30 15.6875 27.9023 15.6875 25.3125V24.375H6.3125V25.3125C6.3125 27.9023 8.41016 30 11 30ZM6.3125 10.3125C6.3125 10.8281 5.89062 11.25 5.375 11.25C4.85938 11.25 4.4375 10.8281 4.4375 10.3125C4.4375 6.68555 7.37305 3.75 11 3.75C11.5156 3.75 11.9375 4.17188 11.9375 4.6875C11.9375 5.20312 11.5156 5.625 11 5.625C8.41016 5.625 6.3125 7.72266 6.3125 10.3125Z" fill="black"/>
</svg>
