<svg width="30" height="24" viewBox="0 0 30 24" fill="none" xmlns="http://www.w3.org/2000/svg">
<g clip-path="url(#clip0_3_217)">
<path d="M18 1.5H24C24.8296 1.5 25.5 2.17031 25.5 3C25.5 3.82969 24.8296 4.5 24 4.5H18.675C18.4312 5.70937 17.6015 6.70781 16.5 7.18594V21H24C24.8296 21 25.5 21.6703 25.5 22.5C25.5 23.3297 24.8296 24 24 24H15H5.99996C5.17027 24 4.49996 23.3297 4.49996 22.5C4.49996 21.6703 5.17027 21 5.99996 21H13.5V7.18594C12.3984 6.70312 11.5687 5.70469 11.325 4.5H5.99996C5.17027 4.5 4.49996 3.82969 4.49996 3C4.49996 2.17031 5.17027 1.5 5.99996 1.5H12C12.6843 0.590625 13.7718 0 15 0C16.2281 0 17.3156 0.590625 18 1.5ZM20.6062 15H27.3937L24 9.17813L20.6062 15ZM24 19.5C21.0515 19.5 18.6 17.9062 18.0937 15.8016C17.9718 15.2859 18.1406 14.7563 18.4078 14.2969L22.8703 6.64688C23.1046 6.24375 23.5359 6 24 6C24.464 6 24.8953 6.24844 25.1297 6.64688L29.5921 14.2969C29.8593 14.7563 30.0281 15.2859 29.9062 15.8016C29.4 17.9062 26.9484 19.5 24 19.5ZM5.94371 9.17813L2.54996 15H9.34215L5.94371 9.17813ZM0.0421492 15.8016C-0.0797258 15.2859 0.0890242 14.7563 0.356212 14.2969L4.81871 6.64688C5.05309 6.24375 5.48434 6 5.9484 6C6.41246 6 6.84371 6.24844 7.07809 6.64688L11.5406 14.2969C11.8078 14.7563 11.9765 15.2859 11.8546 15.8016C11.3437 17.9062 8.89215 19.5 5.94371 19.5C2.99527 19.5 0.548399 17.9062 0.0421492 15.8016Z" fill="black"/>
</g>
<defs>
<clipPath id="clip0_3_217">
<path d="M0 0H30V24H0V0Z" fill="white"/>
</clipPath>
</defs>
</svg>
