<svg width="358" height="468" viewBox="0 0 358 468" fill="none" xmlns="http://www.w3.org/2000/svg">
<path d="M279.065 16.605C276.394 16.605 274.802 16.3208 273.382 16.3208C246.217 16.3208 219.108 16.3208 192 16.3208C187.51 16.3208 186.317 17.4574 186.317 22.0039C186.317 102.325 186.317 182.608 186.317 262.854C186.171 263.618 186.184 264.404 186.354 265.163C186.524 265.922 186.849 266.638 187.307 267.267C187.765 267.895 188.348 268.423 189.018 268.818C189.688 269.212 190.433 269.465 191.205 269.56C200.431 272.539 208.29 278.714 213.367 286.974C218.444 295.233 220.405 305.034 218.897 314.611C217.389 324.188 212.512 332.912 205.143 339.212C197.774 345.512 188.397 348.974 178.702 348.974C169.007 348.974 159.63 345.512 152.261 339.212C144.892 332.912 140.014 324.188 138.506 314.611C136.998 305.034 138.959 295.233 144.036 286.974C149.113 278.714 156.974 272.539 166.2 269.56C170.007 268.31 171.257 266.832 171.257 262.911C171.257 182.627 171.257 102.344 171.257 22.0608C171.257 17.628 170.12 16.3777 165.574 16.3777C138.238 16.3777 110.96 16.3777 83.6246 16.3777C82.2038 16.3777 80.839 16.3776 78.4521 16.6618C79.5887 18.9918 80.4413 20.8673 81.4074 22.6859C95.8992 48.9419 110.163 75.3114 125.11 101.283C129.055 107.977 130.315 115.918 128.634 123.504C125.88 138.419 117.981 151.894 106.312 161.583C94.6442 171.272 79.9464 176.56 64.78 176.526C49.6136 176.492 34.9391 171.138 23.3141 161.398C11.6892 151.657 3.85095 138.147 1.16321 123.22C-0.472626 115.787 0.765153 108.011 4.62911 101.454C22.133 70.7081 39.1256 39.6784 56.0611 8.64864C57.1343 6.19374 58.9513 4.13789 61.2558 2.77146C63.5604 1.40503 66.2362 0.796982 68.9049 1.03321C142.179 1.26053 215.433 1.26053 288.669 1.03321C291.33 0.801237 293.999 1.39752 296.308 2.74041C298.617 4.0833 300.455 6.10721 301.569 8.53495C318.619 39.6215 335.668 70.6514 353.001 101.397C356.835 107.944 358.073 115.691 356.469 123.106C353.801 138.037 345.98 151.558 334.368 161.314C322.756 171.071 308.089 176.445 292.923 176.499C277.756 176.553 263.051 171.284 251.369 161.611C239.688 151.937 231.77 138.472 228.997 123.561C227.287 115.976 228.548 108.024 232.521 101.34C247.467 75.3683 261.674 48.9987 276.166 22.7427C276.848 20.981 277.701 19.276 279.065 16.605ZM21.1108 103.5H108.231L64.6426 24.7318L21.1108 103.5ZM248.773 103.5H336.123L292.42 24.5613L248.773 103.5Z" fill="black"/>
<path d="M95.8438 231.142C94.2525 246.43 97.3782 260.808 91.5815 275.527C86.8643 288.173 84.9547 301.693 85.9858 315.151C87.017 328.608 90.9644 341.68 97.5531 353.459C104.142 365.238 113.215 375.443 124.143 383.365C135.07 391.287 147.59 396.736 160.834 399.335C174.078 401.933 187.728 401.619 200.839 398.414C213.95 395.209 226.206 389.189 236.758 380.773C247.309 372.357 255.903 361.746 261.943 349.676C267.983 337.606 271.323 324.367 271.734 310.876C272.054 297.242 269.517 283.691 264.289 271.094C262.677 266.934 261.756 262.538 261.562 258.08C261.164 249.271 261.562 240.462 261.562 230.972H282.078C292.933 230.972 303.787 230.972 314.642 230.972C315.76 231.118 316.838 231.484 317.814 232.05C318.789 232.616 319.643 233.37 320.325 234.268C323.451 238.701 326.008 243.645 328.622 248.248C329.945 249.924 330.561 252.051 330.338 254.174C330.115 256.298 329.071 258.25 327.429 259.615C320.211 267.457 313.221 275.527 305.947 283.37C304.848 284.491 304.013 285.843 303.502 287.327C302.991 288.812 302.816 290.391 302.991 291.951C303.56 302.571 303.56 313.214 302.991 323.834C302.806 325.399 302.981 326.986 303.503 328.473C304.025 329.96 304.881 331.309 306.004 332.415C313.221 340.258 320.211 348.328 327.429 356.171C329.023 357.566 330.031 359.513 330.252 361.62C330.474 363.727 329.891 365.84 328.622 367.537C320.666 381.063 312.881 394.702 305.095 408.341C304.222 410.244 302.68 411.759 300.762 412.597C298.844 413.436 296.684 413.539 294.694 412.888C284.294 410.444 273.951 408.057 263.437 406.239C260.378 405.936 257.299 406.591 254.628 408.114C245.138 413.172 235.761 418.628 226.554 424.197C224.301 425.499 222.528 427.492 221.497 429.88C217.803 440.224 214.45 450.737 211.21 461.194C210.784 463.238 209.608 465.047 207.915 466.267C206.222 467.487 204.133 468.03 202.06 467.787C186.299 467.787 170.576 467.787 154.89 467.787C152.815 468.023 150.728 467.461 149.05 466.216C147.373 464.971 146.231 463.136 145.855 461.081C142.616 450.567 139.262 440.11 135.511 429.767C134.443 427.475 132.672 425.583 130.454 424.368C121.191 418.685 111.869 413.343 102.322 408.171C99.808 406.731 96.9067 406.115 94.0248 406.409C83.3975 408.285 72.8279 410.672 62.3143 413.058C60.4138 413.716 58.3367 413.65 56.4813 412.875C54.626 412.099 53.1222 410.667 52.2551 408.853C44.223 394.948 36.191 381.044 28.159 367.139C27.0582 365.567 26.571 363.647 26.7909 361.741C27.0108 359.835 27.9225 358.075 29.3522 356.796C36.9107 348.555 44.4688 340.258 51.7431 331.733C53.1324 329.814 53.8881 327.51 53.9034 325.141C53.9034 313.775 53.9034 302.749 53.9034 291.611C53.9289 289.069 53.1526 286.583 51.6862 284.507C44.6961 276.209 37.4214 268.139 29.9765 260.24C28.2301 258.779 27.1314 256.688 26.9186 254.421C26.7057 252.154 27.3962 249.895 28.8402 248.135C31.4955 244.047 33.9241 239.816 36.1147 235.461C36.6586 234.064 37.6523 232.887 38.9382 232.115C40.2241 231.344 41.7294 231.021 43.2185 231.199C60.3246 231.256 77.4875 231.142 95.8438 231.142Z" fill="black"/>
</svg>
