<svg width="445" height="526" viewBox="0 0 445 526" fill="none" xmlns="http://www.w3.org/2000/svg">
<path d="M220.066 525.301C150.107 488.758 97.5957 434.371 58.7236 366.174C35.0852 323.281 18.9952 276.645 11.1563 228.301C7.6438 205.048 5.44267 181.616 4.56376 158.115C2.85884 130.893 2.12001 103.614 0.983398 76.3919C0.983398 73.4935 0.983398 70.7089 0.983398 66.7307C9.79215 65.2531 18.4873 63.3208 27.296 62.241C91.359 54.2368 153.406 34.5302 210.347 4.10277C214.106 1.84308 218.408 0.64917 222.794 0.64917C227.179 0.64917 231.481 1.84308 235.239 4.10277C276.555 24.9598 318.951 43.2026 364.586 52.4661C389.023 57.4104 413.631 61.2749 438.466 65.6509C440.512 65.9919 442.501 66.4465 444.49 66.8443V90.2587C444.007 92.2207 443.665 94.2151 443.467 96.2261C442.501 117.083 441.705 137.94 440.796 158.74C439.986 187.374 436.773 215.89 431.192 243.987C420.327 298.016 399.098 349.43 368.678 395.385C337.265 442.337 296.261 482.101 248.367 512.059C240.639 516.946 232.284 520.754 224.271 525.073L220.066 525.301ZM425.679 80.0859C415.108 78.3241 403.629 76.2782 392.149 74.4028C365.577 71.1386 339.422 65.0811 314.12 56.3305C285.193 44.9643 256.835 32.3478 228.477 19.9018C226.666 18.8431 224.607 18.2852 222.509 18.2852C220.412 18.2852 218.353 18.8431 216.542 19.9018C209.723 23.6527 202.619 26.8352 195.628 30.1882C160.317 47.8447 122.852 60.817 84.1836 68.7766C63.895 72.5842 43.4929 75.8237 23.1475 79.1768C18.9989 79.8587 17.4644 81.3931 17.4644 85.8828C18.6579 111.514 19.4537 137.031 20.4766 162.718C21.4327 197.902 26.3509 232.865 35.1387 266.947C55.3704 341.452 92.6516 405.273 151.244 456.137C169.708 472.999 190.077 487.647 211.939 499.783C214.765 501.515 217.999 502.468 221.312 502.548C224.625 502.628 227.901 501.831 230.807 500.238C257.335 486.276 281.624 468.422 302.868 447.272C345.928 407.135 378.678 357.21 398.344 301.727C409.95 270.629 417.457 238.151 420.678 205.114C422.894 180.222 424.315 155.273 425.338 130.268C426.248 114.185 425.679 97.7604 425.679 80.0859Z" fill="black"/>
<path d="M189.719 279.052C219.953 248.704 248.425 220.061 277.068 191.475C290.196 178.404 292.128 178.574 305.483 191.816C326.624 212.673 326.567 212.559 305.938 233.075C271.385 267.174 236.718 301.67 202.79 336.565C193.697 345.885 187.901 347.647 178.183 337.303C157.894 315.537 136.582 294.794 115.271 274.05C107.371 266.378 107.087 260.354 114.702 252.057C138.23 226.483 138.06 226.199 162.668 250.92C171.59 259.615 179.773 268.765 189.719 279.052Z" fill="black"/>
</svg>
