<svg width="325" height="423" viewBox="0 0 325 423" fill="none" xmlns="http://www.w3.org/2000/svg">
<path d="M61.1699 422.95V279.565H261.441V422.95H61.1699Z" fill="black"/>
<path d="M285.594 174.257C294.289 174.655 299.177 174.655 304.007 175.11C321.568 176.815 328.217 186.476 321.398 203.014C314.644 220.301 306.49 237.008 297.017 252.968C294.526 256.518 291.306 259.495 287.572 261.7C283.838 263.905 279.676 265.288 275.365 265.755C199.439 266.664 123.513 266.267 47.5873 266.267H45.4277C28.7763 264.789 -7.76563 196.478 2.80488 184.203C7.74915 178.519 18.8312 175.621 27.1853 175.564C102.429 174.882 177.616 175.166 252.803 175.166H275.535C285.594 137.999 281.219 125.269 252.803 103.161C251.236 101.895 249.973 100.292 249.108 98.4729C248.242 96.6533 247.796 94.6627 247.802 92.6477C248.314 89.6357 253.485 84.9187 255.929 85.2597C260.31 86.4562 264.181 89.0503 266.954 92.6477C287.413 115.266 290.084 142.83 285.594 174.257Z" fill="black"/>
<path d="M248.257 161.925H78.6175C72.5935 122.882 82.6525 102.025 114.819 88.0444C156.078 124.871 173.241 124.985 207.964 88.6127C238.084 97.7057 250.417 119.983 248.257 161.925Z" fill="black"/>
<path d="M208.986 50.8199C206.997 79.8038 183.583 106.23 160.793 105.207C135.788 104.127 114.079 74.5753 115.727 43.9434C115.948 37.8398 117.396 31.8434 119.985 26.312C122.575 20.7806 126.252 15.8275 130.797 11.7485C135.343 7.66959 140.664 4.54833 146.443 2.57108C152.221 0.593819 158.339 -0.19891 164.43 0.240244C170.699 0.57111 176.84 2.1501 182.491 4.88461C188.142 7.61911 193.19 11.4541 197.339 16.1649C201.489 20.8757 204.657 26.3674 206.657 32.3182C208.656 38.269 209.448 44.5591 208.986 50.8199Z" fill="black"/>
</svg>
