<svg width="24" height="24" viewBox="0 0 24 24" fill="none" xmlns="http://www.w3.org/2000/svg">
<g clip-path="url(#clip0_2_422)">
<path d="M14.9344 0.440674C14.3484 -0.145264 13.3969 -0.145264 12.8109 0.440674L7.18591 6.06567C6.59998 6.65161 6.59998 7.60317 7.18591 8.18911L7.93591 8.93911C8.52185 9.52505 9.47341 9.52505 10.0594 8.93911L10.2469 8.75161L15.2531 13.7532L15.0656 13.9407C14.4797 14.5266 14.4797 15.4782 15.0656 16.0641L15.8156 16.8141C16.4015 17.4 17.3531 17.4 17.939 16.8141L23.564 11.1891C24.15 10.6032 24.15 9.65161 23.564 9.06567L22.814 8.31567C22.2281 7.72974 21.2765 7.72974 20.6906 8.31567L20.5031 8.50317L15.4969 3.49692L15.6844 3.30942C16.2703 2.72349 16.2703 1.77192 15.6844 1.18599L14.9344 0.435986V0.440674ZM7.80935 13.9407C7.22341 13.3547 6.27185 13.3547 5.68591 13.9407L0.435913 19.1907C-0.150024 19.7766 -0.150024 20.7282 0.435913 21.3141L2.68591 23.5641C3.27185 24.15 4.22341 24.15 4.80935 23.5641L10.0594 18.3141C10.6453 17.7282 10.6453 16.7766 10.0594 16.1907L9.99372 16.125L12.75 13.3735L10.6265 11.25L7.87498 14.0016L7.80935 13.936V13.9407Z" fill="black"/>
</g>
<defs>
<clipPath id="clip0_2_422">
<path d="M0 0H24V24H0V0Z" fill="white"/>
</clipPath>
</defs>
</svg>
