<svg width="429" height="431" viewBox="0 0 429 431" fill="none" xmlns="http://www.w3.org/2000/svg">
<path d="M281.62 238.655C258.276 204.483 229.477 174.379 196.374 149.544L178.529 167.388C212.015 191.857 240.88 222.089 263.775 256.67C223.883 296.075 188.314 339.627 157.672 386.586C156.308 382.608 155.286 379.198 153.922 375.959C146.682 360.147 135.794 346.28 122.153 335.495C106.859 321.69 88.36 311.922 68.3343 307.079C62.8925 305.855 57.2874 305.528 51.7402 306.113C45.3486 306.915 39.4829 310.063 35.2821 314.946C31.0812 319.83 28.8451 326.1 29.0079 332.54C28.7193 340.862 30.6827 349.109 34.691 356.409C45.7161 377.322 61.9697 391.644 85.8386 395.736C94.9608 397.187 104.303 395.419 112.264 390.735C87.2588 390.735 68.8459 378.175 53.5016 359.989C47.7205 354.02 44.0143 346.348 42.9312 338.109C42.0219 326.743 48.1028 319.639 59.2984 319.753C64.6253 319.836 69.896 320.856 74.87 322.765C98.6532 331.262 118.929 347.439 132.496 368.741C135.574 373.205 137.718 378.244 138.802 383.556C139.886 388.868 139.887 394.344 138.804 399.657C136.517 408.134 131.641 415.686 124.856 421.259C118.07 426.832 109.715 430.147 100.955 430.744C87.0369 431.463 73.2114 428.106 61.1736 421.082C34.179 406.022 13.7202 384.995 3.83163 355.158C-4.80663 328.902 3.2063 305.886 24.2336 287.984C57.3659 259.568 89.8735 230.642 122.665 201.942C123.063 201.601 123.346 201.146 123.801 200.692C117.209 202.567 110.844 204.783 104.309 206.375C97.3512 208.329 90.023 208.564 82.9548 207.059C75.8865 205.554 69.2895 202.355 63.7314 197.736C44.4658 181.085 40.5446 146.588 56.0025 127.152C66.9708 113.399 82.1447 110.103 98.6824 111.296C117.549 113.097 135.778 119.076 152.046 128.8L154.887 130.335C150.852 121.412 146.42 112.603 143.01 103.51C137.264 89.5258 135.096 74.3292 136.702 59.2958C139.998 34.688 159.832 19.514 185.235 21.6168C196.337 22.2271 207.02 26.0583 215.98 32.642C222.193 37.0447 227.029 43.12 229.926 50.162C232.824 57.204 233.663 64.9236 232.348 72.4238C230.951 80.2663 229.052 88.0112 226.664 95.6108C226.364 96.689 226.364 97.8289 226.664 98.9071C239.679 84.0742 252.92 69.4685 265.65 54.4082C276.164 42.0191 285.882 29.0048 296.396 16.6156C300.476 11.8204 305.507 7.92501 311.172 5.17604C316.836 2.42706 323.009 0.884483 329.301 0.646099C349.365 -0.231498 369.037 6.39352 384.483 19.2299C406.574 35.3578 421.965 59.0425 427.731 85.7791C429.683 93.3461 429.336 101.323 426.735 108.692C424.133 116.061 419.396 122.487 413.126 127.152C394.202 142.497 374.822 157.329 356.296 173.185C331.972 193.986 308.33 215.524 284.405 236.722L281.62 238.655ZM181.427 142.042H182.508C186.827 125.902 191.429 109.819 195.408 93.5649C196.961 87.1235 197.781 80.5271 197.852 73.9014C198.192 70.8721 197.338 67.8294 195.47 65.4203C193.602 63.0112 190.868 61.4255 187.849 61.0007C185.166 60.8388 182.507 61.5788 180.293 63.1029C178.079 64.627 176.437 66.8477 175.631 69.4117C172.89 76.2388 171.951 83.656 172.903 90.9508C173.869 100.157 175.119 109.421 176.597 118.571C177.734 126.413 179.609 134.256 181.257 142.099L181.427 142.042ZM167.959 156.818V156.25C167.258 155.935 166.536 155.669 165.799 155.454C156.82 153.635 147.841 151.362 138.804 150.169C128.016 148.628 117.138 147.792 106.241 147.668C100.988 148.112 95.9012 149.724 91.351 152.385C89.5161 153.423 88.0785 155.041 87.2656 156.986C86.4527 158.931 86.3104 161.091 86.8612 163.126C87.0489 165.088 87.8813 166.933 89.2282 168.373C90.575 169.812 92.3608 170.765 94.3063 171.082C99.7278 172.225 105.31 172.379 110.787 171.537C129.768 166.991 148.75 161.933 167.959 156.875V156.818Z" fill="black"/>
</svg>
