<svg width="30" height="16" viewBox="0 0 30 16" fill="none" xmlns="http://www.w3.org/2000/svg">
<path d="M16.2 1.10001C15.8109 0.584388 15.1359 0.37345 14.5266 0.575013C13.9172 0.776575 13.5 1.35314 13.5 2.00001V14C13.5 14.8297 14.1703 15.5 15 15.5C15.8297 15.5 16.5 14.8297 16.5 14V6.50001L20.55 11.9C20.8312 12.2797 21.2766 12.5 21.75 12.5C22.2234 12.5 22.6688 12.2797 22.95 11.9L27 6.50001V14C27 14.8297 27.6703 15.5 28.5 15.5C29.3297 15.5 30 14.8297 30 14V2.00001C30 1.35314 29.5875 0.781263 28.9734 0.575013C28.3594 0.368763 27.6844 0.5797 27.3 1.10001L21.75 8.50158L16.2 1.10001ZM0 2.00001C0 2.8297 0.670312 3.50001 1.5 3.50001H4.5V14C4.5 14.8297 5.17031 15.5 6 15.5C6.82969 15.5 7.5 14.8297 7.5 14V3.50001H10.5C11.3297 3.50001 12 2.8297 12 2.00001C12 1.17033 11.3297 0.500013 10.5 0.500013H1.5C0.670312 0.500013 0 1.17033 0 2.00001Z" fill="black"/>
</svg>
