<svg width="30" height="24" viewBox="0 0 30 24" fill="none" xmlns="http://www.w3.org/2000/svg">
<path d="M30 24H0V0H30V24Z" stroke="#E5E7EB"/>
<path d="M30 24H0V0H30V24Z" stroke="#E5E7EB"/>
<path d="M16.2 5.10001C15.8109 4.58439 15.1359 4.37345 14.5266 4.57501C13.9172 4.77658 13.5 5.35314 13.5 6.00001V18C13.5 18.8297 14.1703 19.5 15 19.5C15.8297 19.5 16.5 18.8297 16.5 18V10.5L20.55 15.9C20.8312 16.2797 21.2766 16.5 21.75 16.5C22.2234 16.5 22.6688 16.2797 22.95 15.9L27 10.5V18C27 18.8297 27.6703 19.5 28.5 19.5C29.3297 19.5 30 18.8297 30 18V6.00001C30 5.35314 29.5875 4.78126 28.9734 4.57501C28.3594 4.36876 27.6844 4.5797 27.3 5.10001L21.75 12.5016L16.2 5.10001ZM0 6.00001C0 6.8297 0.670312 7.50001 1.5 7.50001H4.5V18C4.5 18.8297 5.17031 19.5 6 19.5C6.82969 19.5 7.5 18.8297 7.5 18V7.50001H10.5C11.3297 7.50001 12 6.8297 12 6.00001C12 5.17033 11.3297 4.50001 10.5 4.50001H1.5C0.670312 4.50001 0 5.17033 0 6.00001Z" fill="black"/>
</svg>
